<?xml version="1.0" encoding="UTF-8"?>
<!DOCTYPE svg PUBLIC "-//W3C//DTD SVG 1.1//EN" "http://www.w3.org/Graphics/SVG/1.1/DTD/svg11.dtd">
<svg version="1.1" xmlns="http://www.w3.org/2000/svg" xmlns:xlink="http://www.w3.org/1999/xlink" x="0" y="0" width="500" height="500" viewBox="0, 0, 500, 500">
  <g id="Layer_1">
    <path d="M250,500 C111.929,500 -0,388.071 -0,250 C-0,111.929 111.929,-0 250,-0 C388.071,-0 500,111.929 500,250 C500,388.071 388.071,500 250,500 z" fill="#388E3C"/>
    <path d="M250,449.5 C139.819,449.5 50.5,360.181 50.5,250 C50.5,139.819 139.819,50.5 250,50.5 C360.181,50.5 449.5,139.819 449.5,250 C449.5,360.181 360.181,449.5 250,449.5 z" fill="#FDD835"/>
  </g>
  <g id="Layer_2">
    <path d="M254.676,170.932 L334.716,233.204 L334.716,170.932 L406.032,170.932 Q420.871,170.932 431.281,175.251 Q441.69,179.57 448.224,186.657 Q454.757,193.744 457.747,202.825 Q460.737,211.906 460.737,221.651 Q460.737,231.174 457.747,240.366 Q454.757,249.557 448.224,256.644 Q441.69,263.732 431.281,268.051 Q420.871,272.369 406.032,272.369 L369.488,272.369 L369.488,329.068 L334.716,329.068 L334.716,249.117 L324.476,262.279 L264.169,215.358 L241.728,244.201 L293.995,284.865 L277.403,306.192 L225.136,265.527 L185.016,317.095 L164.959,301.49 C162.932,304.498 164.093,302.893 161.408,306.256 Q152.439,316.887 139.039,322.977 Q125.64,329.068 107.478,329.068 L39.263,329.068 L39.263,170.932 L107.478,170.932 Q122.76,170.932 135.938,175.805 Q149.116,180.677 158.751,190.422 Q168.385,200.167 173.811,214.785 Q179.238,229.403 179.237,249.114 C179.103,256.18 178.879,263.359 177.372,270.293 L254.676,170.932 z M98.841,200.167 L74.035,200.167 L74.035,299.833 L105.042,299.833 Q112.572,299.833 119.66,297.397 Q126.747,294.96 132.284,289.313 Q137.821,283.665 141.143,274.584 Q144.465,265.504 144.465,252.436 Q144.465,240.476 142.14,230.842 Q139.814,221.208 134.499,214.342 Q129.183,207.476 120.435,203.822 Q111.686,200.167 98.841,200.167 z M396.508,197.952 L369.488,197.952 L369.488,245.349 L396.508,245.349 Q402.488,245.349 408.025,244.463 Q413.562,243.577 417.77,241.03 Q421.978,238.483 424.525,233.832 Q427.072,229.181 427.072,221.651 Q427.072,214.12 424.525,209.469 Q421.978,204.818 417.77,202.271 Q413.562,199.724 408.025,198.838 Q402.488,197.952 396.508,197.952 z" fill="#4CAF50"/>
  </g>
</svg>
